<svg id="Layer_1" viewBox="0 0 24 24" xmlns="http://www.w3.org/2000/svg" data-name="Layer 1"><path d="m9.5 20c-4.646 0-7.034-.969-7.133-1.01-.271-.112-.479-.339-.569-.618-.032-.101-.798-2.526-.798-6.372s.765-6.271.798-6.373c.09-.279.298-.505.569-.618.1-.041 2.488-1.009 7.133-1.009s7.034.968 7.133 1.009c.271.112.479.338.569.618.032.102.798 2.527.798 6.373s-.766 6.271-.798 6.372c-.09.279-.298.506-.569.618-.099.041-2.487 1.01-7.133 1.01zm12.992-13.87c-.312-.178-.697-.172-1.007.013-.689.413-1.288.833-1.849 1.264.192 1.176.364 2.725.364 4.593 0 1.897-.175 3.461-.37 4.639.632.499 1.275.932 1.922 1.256.634.341 1.469-.174 1.447-.895v-10c0-.36-.193-.693-.508-.87z"/></svg>